<svg width="390" height="441" viewBox="0 0 390 441" fill="none" xmlns="http://www.w3.org/2000/svg">
<g filter="url(#filter0_d_1_299)">
<circle cx="195" cy="195" r="175" fill="#202020"/>
</g>
<path d="M255.399 143.299L255.392 143.293C251.608 139.61 247.144 136.68 242.241 134.666L242.23 134.661C237.142 132.563 231.683 131.488 226.17 131.5L226.161 131.5H226.151C218.392 131.5 210.841 133.609 204.291 137.577L204.29 137.577C202.723 138.527 201.241 139.565 199.841 140.693L194.509 144.987L189.178 140.693C187.777 139.565 186.295 138.527 184.728 137.577L184.728 137.577C178.178 133.609 170.627 131.5 162.868 131.5C157.266 131.5 151.878 132.562 146.788 134.661L146.779 134.665C141.856 136.689 137.431 139.593 133.624 143.295L133.619 143.301L133.613 143.306C129.845 146.957 126.839 151.302 124.761 156.095L255.399 143.299ZM255.399 143.299C259.164 146.956 262.172 151.304 264.258 156.097L255.399 143.299ZM156.933 230.348L156.933 230.348C165.393 238.106 173.845 244.693 180.287 249.402C183.502 251.753 186.2 253.623 188.126 254.925C189.089 255.576 189.856 256.083 190.397 256.436C190.861 256.739 191.12 256.903 191.189 256.947C191.205 256.957 191.21 256.961 191.206 256.958L191.273 256.999L191.339 257.041L194.5 259.054L197.66 257.041L197.662 257.04C198.23 256.679 215.073 245.914 232.067 230.348H156.933ZM156.933 230.348C146.718 220.984 138.693 211.927 132.971 203.456M156.933 230.348L132.971 203.456M132.971 203.456C129.363 198.108 126.628 192.942 124.762 188.106L132.971 203.456ZM121.5 171.806C121.5 166.36 122.599 161.084 124.761 156.095L124.762 188.105C122.542 182.34 121.5 176.873 121.5 171.806Z" stroke="white" stroke-width="17"/>
<defs>
<filter id="filter0_d_1_299" x="-31" y="-11" width="452" height="452" filterUnits="userSpaceOnUse" color-interpolation-filters="sRGB">
<feFlood flood-opacity="0" result="BackgroundImageFix"/>
<feColorMatrix in="SourceAlpha" type="matrix" values="0 0 0 0 0 0 0 0 0 0 0 0 0 0 0 0 0 0 127 0" result="hardAlpha"/>
<feOffset dy="20"/>
<feGaussianBlur stdDeviation="25.5"/>
<feColorMatrix type="matrix" values="0 0 0 0 0 0 0 0 0 0 0 0 0 0 0 0 0 0 0.25 0"/>
<feBlend mode="normal" in2="BackgroundImageFix" result="effect1_dropShadow_1_299"/>
<feBlend mode="normal" in="SourceGraphic" in2="effect1_dropShadow_1_299" result="shape"/>
</filter>
</defs>
</svg>
